<mxfile host="app.diagrams.net" agent="Mozilla/5.0 (Windows NT 10.0; Win64; x64) AppleWebKit/537.36 (KHTML, like Gecko) Chrome/132.0.0.0 Safari/537.36 OPR/117.0.0.0" version="26.2.9">
  <diagram id="C5RBs43oDa-KdzZeNtuy" name="Page-1">
    <mxGraphModel dx="2260" dy="1989" grid="1" gridSize="10" guides="1" tooltips="1" connect="1" arrows="1" fold="1" page="1" pageScale="1" pageWidth="827" pageHeight="1169" math="0" shadow="0">
      <root>
        <mxCell id="WIyWlLk6GJQsqaUBKTNV-0" />
        <mxCell id="WIyWlLk6GJQsqaUBKTNV-1" parent="WIyWlLk6GJQsqaUBKTNV-0" />
        <mxCell id="WIyWlLk6GJQsqaUBKTNV-2" value="" style="rounded=0;html=1;jettySize=auto;orthogonalLoop=1;fontSize=11;endArrow=block;endFill=0;endSize=8;strokeWidth=1;shadow=0;labelBackgroundColor=none;edgeStyle=orthogonalEdgeStyle;entryX=0;entryY=0.75;entryDx=0;entryDy=0;exitX=1;exitY=0.75;exitDx=0;exitDy=0;" parent="WIyWlLk6GJQsqaUBKTNV-1" source="WIyWlLk6GJQsqaUBKTNV-3" target="gpm00dL7AFckw44W11zW-0" edge="1">
          <mxGeometry relative="1" as="geometry" />
        </mxCell>
        <mxCell id="WIyWlLk6GJQsqaUBKTNV-3" value="Frontend&lt;div&gt;Nodejs&lt;/div&gt;" style="rounded=1;whiteSpace=wrap;html=1;fontSize=12;glass=0;strokeWidth=1;shadow=0;" parent="WIyWlLk6GJQsqaUBKTNV-1" vertex="1">
          <mxGeometry x="-390" y="40" width="120" height="40" as="geometry" />
        </mxCell>
        <mxCell id="WIyWlLk6GJQsqaUBKTNV-6" value="Kafka" style="rhombus;whiteSpace=wrap;html=1;shadow=0;fontFamily=Helvetica;fontSize=12;align=center;strokeWidth=1;spacing=6;spacingTop=-4;" parent="WIyWlLk6GJQsqaUBKTNV-1" vertex="1">
          <mxGeometry x="430" y="-2.5" width="120" height="125" as="geometry" />
        </mxCell>
        <mxCell id="WIyWlLk6GJQsqaUBKTNV-7" value="IA Flask" style="rounded=1;whiteSpace=wrap;html=1;fontSize=12;glass=0;strokeWidth=1;shadow=0;" parent="WIyWlLk6GJQsqaUBKTNV-1" vertex="1">
          <mxGeometry x="650" y="40" width="120" height="40" as="geometry" />
        </mxCell>
        <mxCell id="WIyWlLk6GJQsqaUBKTNV-9" value="" style="edgeStyle=orthogonalEdgeStyle;rounded=0;html=1;jettySize=auto;orthogonalLoop=1;fontSize=11;endArrow=block;endFill=0;endSize=8;strokeWidth=1;shadow=0;labelBackgroundColor=none;exitX=0.5;exitY=1;exitDx=0;exitDy=0;entryX=0.5;entryY=0;entryDx=0;entryDy=0;" parent="WIyWlLk6GJQsqaUBKTNV-1" source="WIyWlLk6GJQsqaUBKTNV-10" target="gpm00dL7AFckw44W11zW-13" edge="1">
          <mxGeometry y="10" relative="1" as="geometry">
            <mxPoint as="offset" />
            <mxPoint x="400" y="430" as="targetPoint" />
          </mxGeometry>
        </mxCell>
        <mxCell id="WIyWlLk6GJQsqaUBKTNV-10" value="Spark&lt;div&gt;Master&lt;/div&gt;" style="rhombus;whiteSpace=wrap;html=1;shadow=0;fontFamily=Helvetica;fontSize=12;align=center;strokeWidth=1;spacing=6;spacingTop=-4;" parent="WIyWlLk6GJQsqaUBKTNV-1" vertex="1">
          <mxGeometry x="430" y="330" width="120" height="100" as="geometry" />
        </mxCell>
        <mxCell id="gpm00dL7AFckw44W11zW-1" value="" style="rounded=0;html=1;jettySize=auto;orthogonalLoop=1;fontSize=11;endArrow=block;endFill=0;endSize=8;strokeWidth=1;shadow=0;labelBackgroundColor=none;edgeStyle=orthogonalEdgeStyle;entryX=1;entryY=0.25;entryDx=0;entryDy=0;exitX=0;exitY=0.25;exitDx=0;exitDy=0;" parent="WIyWlLk6GJQsqaUBKTNV-1" source="gpm00dL7AFckw44W11zW-0" target="WIyWlLk6GJQsqaUBKTNV-3" edge="1">
          <mxGeometry relative="1" as="geometry">
            <mxPoint x="140" y="80" as="sourcePoint" />
            <mxPoint x="210" y="80" as="targetPoint" />
          </mxGeometry>
        </mxCell>
        <mxCell id="gpm00dL7AFckw44W11zW-2" value="send_all_messages" style="rounded=0;html=1;jettySize=auto;orthogonalLoop=1;fontSize=11;endArrow=block;endFill=0;endSize=8;strokeWidth=1;shadow=0;labelBackgroundColor=none;edgeStyle=orthogonalEdgeStyle;entryX=0;entryY=0.5;entryDx=0;entryDy=0;exitX=1;exitY=0;exitDx=0;exitDy=0;" parent="WIyWlLk6GJQsqaUBKTNV-1" source="gpm00dL7AFckw44W11zW-0" target="WIyWlLk6GJQsqaUBKTNV-6" edge="1">
          <mxGeometry x="-0.0566" y="10" relative="1" as="geometry">
            <mxPoint as="offset" />
            <mxPoint x="410" y="30" as="sourcePoint" />
            <mxPoint x="220" y="290" as="targetPoint" />
            <Array as="points">
              <mxPoint x="370" y="40" />
              <mxPoint x="370" y="60" />
            </Array>
          </mxGeometry>
        </mxCell>
        <mxCell id="gpm00dL7AFckw44W11zW-0" value="Backend Flask" style="rounded=1;whiteSpace=wrap;html=1;fontSize=12;glass=0;strokeWidth=1;shadow=0;" parent="WIyWlLk6GJQsqaUBKTNV-1" vertex="1">
          <mxGeometry x="-190" y="40" width="120" height="40" as="geometry" />
        </mxCell>
        <mxCell id="gpm00dL7AFckw44W11zW-3" value="ia_message" style="edgeStyle=orthogonalEdgeStyle;rounded=0;html=1;jettySize=auto;orthogonalLoop=1;fontSize=11;endArrow=block;endFill=0;endSize=8;strokeWidth=1;shadow=0;labelBackgroundColor=none;exitX=0;exitY=0.5;exitDx=0;exitDy=0;entryX=1;entryY=0.5;entryDx=0;entryDy=0;horizontal=1;" parent="WIyWlLk6GJQsqaUBKTNV-1" source="WIyWlLk6GJQsqaUBKTNV-7" target="WIyWlLk6GJQsqaUBKTNV-6" edge="1">
          <mxGeometry y="-10" relative="1" as="geometry">
            <mxPoint as="offset" />
            <mxPoint x="550" y="70" as="sourcePoint" />
            <mxPoint x="650" y="70" as="targetPoint" />
            <Array as="points">
              <mxPoint x="630" y="60" />
              <mxPoint x="630" y="60" />
            </Array>
          </mxGeometry>
        </mxCell>
        <mxCell id="gpm00dL7AFckw44W11zW-9" value="ia_message" style="edgeStyle=orthogonalEdgeStyle;rounded=0;html=1;jettySize=auto;orthogonalLoop=1;fontSize=11;endArrow=block;endFill=0;endSize=8;strokeWidth=1;shadow=0;labelBackgroundColor=none;exitX=0.5;exitY=0;exitDx=0;exitDy=0;horizontal=0;entryX=1;entryY=1;entryDx=0;entryDy=0;" parent="WIyWlLk6GJQsqaUBKTNV-1" source="WIyWlLk6GJQsqaUBKTNV-6" target="gpm00dL7AFckw44W11zW-8" edge="1">
          <mxGeometry x="0.0204" y="15" relative="1" as="geometry">
            <mxPoint as="offset" />
            <mxPoint x="515" y="40" as="sourcePoint" />
            <mxPoint x="490" y="-80" as="targetPoint" />
            <Array as="points">
              <mxPoint x="515" y="-2" />
            </Array>
          </mxGeometry>
        </mxCell>
        <mxCell id="gpm00dL7AFckw44W11zW-23" value="get_all_messages" style="edgeStyle=orthogonalEdgeStyle;rounded=0;orthogonalLoop=1;jettySize=auto;html=1;entryX=0.75;entryY=0;entryDx=0;entryDy=0;exitX=0.5;exitY=0;exitDx=0;exitDy=0;" parent="WIyWlLk6GJQsqaUBKTNV-1" source="gpm00dL7AFckw44W11zW-8" target="gpm00dL7AFckw44W11zW-0" edge="1">
          <mxGeometry x="0.1366" y="-10" relative="1" as="geometry">
            <Array as="points">
              <mxPoint x="490" y="-210" />
              <mxPoint x="-100" y="-210" />
            </Array>
            <mxPoint as="offset" />
          </mxGeometry>
        </mxCell>
        <mxCell id="gpm00dL7AFckw44W11zW-8" value="Nifi" style="rhombus;whiteSpace=wrap;html=1;shadow=0;fontFamily=Helvetica;fontSize=12;align=center;strokeWidth=1;spacing=6;spacingTop=-4;" parent="WIyWlLk6GJQsqaUBKTNV-1" vertex="1">
          <mxGeometry x="440" y="-160" width="100" height="80" as="geometry" />
        </mxCell>
        <mxCell id="gpm00dL7AFckw44W11zW-10" value="send_message" style="edgeStyle=orthogonalEdgeStyle;rounded=0;html=1;jettySize=auto;orthogonalLoop=1;fontSize=11;endArrow=block;endFill=0;endSize=8;strokeWidth=1;shadow=0;labelBackgroundColor=none;entryX=0.5;entryY=0;entryDx=0;entryDy=0;exitX=1;exitY=0.5;exitDx=0;exitDy=0;" parent="WIyWlLk6GJQsqaUBKTNV-1" source="gpm00dL7AFckw44W11zW-8" target="WIyWlLk6GJQsqaUBKTNV-7" edge="1">
          <mxGeometry x="-0.3333" y="10" relative="1" as="geometry">
            <mxPoint as="offset" />
            <mxPoint x="660" y="-110" as="sourcePoint" />
            <mxPoint x="610" y="70" as="targetPoint" />
          </mxGeometry>
        </mxCell>
        <mxCell id="gpm00dL7AFckw44W11zW-12" value="Hadoop" style="rhombus;whiteSpace=wrap;html=1;shadow=0;fontFamily=Helvetica;fontSize=12;align=center;strokeWidth=1;spacing=6;spacingTop=-4;" parent="WIyWlLk6GJQsqaUBKTNV-1" vertex="1">
          <mxGeometry x="440" y="560" width="100" height="80" as="geometry" />
        </mxCell>
        <mxCell id="gpm00dL7AFckw44W11zW-13" value="Hive" style="rhombus;whiteSpace=wrap;html=1;shadow=0;fontFamily=Helvetica;fontSize=12;align=center;strokeWidth=1;spacing=6;spacingTop=-4;" parent="WIyWlLk6GJQsqaUBKTNV-1" vertex="1">
          <mxGeometry x="440" y="450" width="100" height="80" as="geometry" />
        </mxCell>
        <mxCell id="gpm00dL7AFckw44W11zW-14" value="" style="edgeStyle=orthogonalEdgeStyle;rounded=0;html=1;jettySize=auto;orthogonalLoop=1;fontSize=11;endArrow=block;endFill=0;endSize=8;strokeWidth=1;shadow=0;labelBackgroundColor=none;exitX=0.5;exitY=1;exitDx=0;exitDy=0;entryX=0.5;entryY=0;entryDx=0;entryDy=0;" parent="WIyWlLk6GJQsqaUBKTNV-1" source="gpm00dL7AFckw44W11zW-13" target="gpm00dL7AFckw44W11zW-12" edge="1">
          <mxGeometry y="10" relative="1" as="geometry">
            <mxPoint as="offset" />
            <mxPoint x="520" y="390" as="sourcePoint" />
            <mxPoint x="520" y="430" as="targetPoint" />
          </mxGeometry>
        </mxCell>
        <mxCell id="gpm00dL7AFckw44W11zW-16" value="update_ia" style="edgeStyle=orthogonalEdgeStyle;rounded=0;orthogonalLoop=1;jettySize=auto;html=1;entryX=0.5;entryY=1;entryDx=0;entryDy=0;horizontal=0;" parent="WIyWlLk6GJQsqaUBKTNV-1" source="gpm00dL7AFckw44W11zW-15" target="WIyWlLk6GJQsqaUBKTNV-7" edge="1">
          <mxGeometry x="-0.1111" y="10" relative="1" as="geometry">
            <mxPoint as="offset" />
          </mxGeometry>
        </mxCell>
        <mxCell id="gpm00dL7AFckw44W11zW-15" value="Airflow" style="rhombus;whiteSpace=wrap;html=1;shadow=0;fontFamily=Helvetica;fontSize=12;align=center;strokeWidth=1;spacing=6;spacingTop=-4;" parent="WIyWlLk6GJQsqaUBKTNV-1" vertex="1">
          <mxGeometry x="660" y="170" width="100" height="80" as="geometry" />
        </mxCell>
        <mxCell id="gpm00dL7AFckw44W11zW-20" value="ia_message" style="edgeStyle=orthogonalEdgeStyle;rounded=0;html=1;jettySize=auto;orthogonalLoop=1;fontSize=11;endArrow=block;endFill=0;endSize=8;strokeWidth=1;shadow=0;labelBackgroundColor=none;entryX=0.75;entryY=0;entryDx=0;entryDy=0;exitX=0.5;exitY=0;exitDx=0;exitDy=0;" parent="WIyWlLk6GJQsqaUBKTNV-1" source="gpm00dL7AFckw44W11zW-8" target="gpm00dL7AFckw44W11zW-0" edge="1">
          <mxGeometry x="-0.0476" y="-10" relative="1" as="geometry">
            <mxPoint as="offset" />
            <mxPoint x="560" y="-150" as="sourcePoint" />
            <mxPoint x="-100" y="-50" as="targetPoint" />
            <Array as="points">
              <mxPoint x="490" y="-170" />
              <mxPoint x="-100" y="-170" />
            </Array>
          </mxGeometry>
        </mxCell>
        <mxCell id="gpm00dL7AFckw44W11zW-21" value="get_all_messages" style="rounded=0;html=1;jettySize=auto;orthogonalLoop=1;fontSize=11;endArrow=block;endFill=0;endSize=8;strokeWidth=1;shadow=0;labelBackgroundColor=none;edgeStyle=orthogonalEdgeStyle;exitX=0.5;exitY=0;exitDx=0;exitDy=0;horizontal=0;entryX=0.5;entryY=1;entryDx=0;entryDy=0;" parent="WIyWlLk6GJQsqaUBKTNV-1" source="WIyWlLk6GJQsqaUBKTNV-6" target="gpm00dL7AFckw44W11zW-8" edge="1">
          <mxGeometry x="0.2258" y="30" relative="1" as="geometry">
            <mxPoint as="offset" />
            <mxPoint x="550" y="230" as="sourcePoint" />
            <mxPoint x="720" y="29" as="targetPoint" />
            <Array as="points">
              <mxPoint x="490" y="-40" />
              <mxPoint x="490" y="-40" />
            </Array>
          </mxGeometry>
        </mxCell>
        <mxCell id="gpm00dL7AFckw44W11zW-24" value="send_message" style="rounded=0;html=1;jettySize=auto;orthogonalLoop=1;fontSize=11;endArrow=block;endFill=0;endSize=8;strokeWidth=1;shadow=0;labelBackgroundColor=none;edgeStyle=orthogonalEdgeStyle;entryX=0;entryY=0.5;entryDx=0;entryDy=0;exitX=1;exitY=1;exitDx=0;exitDy=0;" parent="WIyWlLk6GJQsqaUBKTNV-1" source="gpm00dL7AFckw44W11zW-0" target="WIyWlLk6GJQsqaUBKTNV-6" edge="1">
          <mxGeometry x="-0.7736" y="10" relative="1" as="geometry">
            <mxPoint as="offset" />
            <mxPoint x="360" y="79.49" as="sourcePoint" />
            <mxPoint x="465" y="79.49" as="targetPoint" />
            <Array as="points">
              <mxPoint x="370" y="80" />
              <mxPoint x="370" y="60" />
            </Array>
          </mxGeometry>
        </mxCell>
        <mxCell id="gpm00dL7AFckw44W11zW-27" value="check_message" style="rounded=0;html=1;jettySize=auto;orthogonalLoop=1;fontSize=11;endArrow=block;endFill=0;endSize=8;strokeWidth=1;shadow=0;labelBackgroundColor=none;edgeStyle=orthogonalEdgeStyle;entryX=0;entryY=0.5;entryDx=0;entryDy=0;exitX=1;exitY=0.5;exitDx=0;exitDy=0;" parent="WIyWlLk6GJQsqaUBKTNV-1" source="gpm00dL7AFckw44W11zW-0" target="WIyWlLk6GJQsqaUBKTNV-6" edge="1">
          <mxGeometry x="-0.4118" y="10" relative="1" as="geometry">
            <mxPoint as="offset" />
            <mxPoint x="370" y="90" as="sourcePoint" />
            <mxPoint x="475" y="90" as="targetPoint" />
            <Array as="points">
              <mxPoint x="400" y="60" />
              <mxPoint x="400" y="60" />
            </Array>
          </mxGeometry>
        </mxCell>
        <mxCell id="63v-XBnnwQb9k9Eb8Nwh-6" value="HTTP" style="whiteSpace=wrap;html=1;aspect=fixed;fillColor=none;fontSize=78;" parent="WIyWlLk6GJQsqaUBKTNV-1" vertex="1">
          <mxGeometry x="-40" y="-430" width="300" height="300" as="geometry" />
        </mxCell>
        <mxCell id="8e0LqGuYPpYhiRtE7BXV-8" value="register" style="rounded=0;html=1;jettySize=auto;orthogonalLoop=1;fontSize=11;endArrow=block;endFill=0;endSize=8;strokeWidth=1;shadow=0;labelBackgroundColor=none;edgeStyle=orthogonalEdgeStyle;entryX=0;entryY=0.5;entryDx=0;entryDy=0;exitX=0.75;exitY=1;exitDx=0;exitDy=0;" edge="1" parent="WIyWlLk6GJQsqaUBKTNV-1" source="gpm00dL7AFckw44W11zW-0" target="WIyWlLk6GJQsqaUBKTNV-6">
          <mxGeometry x="-0.3667" y="10" relative="1" as="geometry">
            <mxPoint as="offset" />
            <mxPoint x="-60" y="90" as="sourcePoint" />
            <mxPoint x="450" y="70" as="targetPoint" />
            <Array as="points">
              <mxPoint x="-100" y="100" />
              <mxPoint x="390" y="100" />
              <mxPoint x="390" y="60" />
            </Array>
          </mxGeometry>
        </mxCell>
        <mxCell id="8e0LqGuYPpYhiRtE7BXV-9" value="send_users" style="rounded=0;html=1;jettySize=auto;orthogonalLoop=1;fontSize=11;endArrow=block;endFill=0;endSize=8;strokeWidth=1;shadow=0;labelBackgroundColor=none;edgeStyle=orthogonalEdgeStyle;entryX=0;entryY=0.5;entryDx=0;entryDy=0;exitX=0.5;exitY=1;exitDx=0;exitDy=0;" edge="1" parent="WIyWlLk6GJQsqaUBKTNV-1" source="gpm00dL7AFckw44W11zW-0" target="WIyWlLk6GJQsqaUBKTNV-6">
          <mxGeometry x="-0.0149" y="10" relative="1" as="geometry">
            <mxPoint as="offset" />
            <mxPoint x="-50" y="100" as="sourcePoint" />
            <mxPoint x="460" y="80" as="targetPoint" />
            <Array as="points">
              <mxPoint x="-130" y="120" />
              <mxPoint x="390" y="120" />
              <mxPoint x="390" y="60" />
            </Array>
          </mxGeometry>
        </mxCell>
        <mxCell id="8e0LqGuYPpYhiRtE7BXV-10" value="get_users" style="edgeStyle=orthogonalEdgeStyle;rounded=0;orthogonalLoop=1;jettySize=auto;html=1;entryX=0.75;entryY=0;entryDx=0;entryDy=0;exitX=0.5;exitY=0;exitDx=0;exitDy=0;" edge="1" parent="WIyWlLk6GJQsqaUBKTNV-1" target="gpm00dL7AFckw44W11zW-0">
          <mxGeometry x="-0.3247" y="-10" relative="1" as="geometry">
            <Array as="points">
              <mxPoint x="490" y="-190" />
              <mxPoint x="-100" y="-190" />
            </Array>
            <mxPoint as="offset" />
            <mxPoint x="490" y="-210" as="sourcePoint" />
            <mxPoint x="-100" y="-30" as="targetPoint" />
          </mxGeometry>
        </mxCell>
        <mxCell id="8e0LqGuYPpYhiRtE7BXV-11" value="get_users" style="edgeStyle=orthogonalEdgeStyle;rounded=0;html=1;jettySize=auto;orthogonalLoop=1;fontSize=11;endArrow=block;endFill=0;endSize=8;strokeWidth=1;shadow=0;labelBackgroundColor=none;exitX=0.5;exitY=0;exitDx=0;exitDy=0;entryX=0;entryY=0.5;entryDx=0;entryDy=0;horizontal=0;" edge="1" parent="WIyWlLk6GJQsqaUBKTNV-1" source="WIyWlLk6GJQsqaUBKTNV-6" target="gpm00dL7AFckw44W11zW-8">
          <mxGeometry x="0.2088" y="10" relative="1" as="geometry">
            <mxPoint y="1" as="offset" />
            <mxPoint x="500" y="8" as="sourcePoint" />
            <mxPoint x="550" y="-110" as="targetPoint" />
            <Array as="points">
              <mxPoint x="410" y="-2" />
              <mxPoint x="410" y="-120" />
            </Array>
          </mxGeometry>
        </mxCell>
        <mxCell id="8e0LqGuYPpYhiRtE7BXV-16" value="send_users" style="rounded=0;html=1;jettySize=auto;orthogonalLoop=1;fontSize=11;endArrow=block;endFill=0;endSize=8;strokeWidth=1;shadow=0;labelBackgroundColor=none;edgeStyle=orthogonalEdgeStyle;entryX=0;entryY=0;entryDx=0;entryDy=0;exitX=0;exitY=1;exitDx=0;exitDy=0;horizontal=0;" edge="1" parent="WIyWlLk6GJQsqaUBKTNV-1" source="WIyWlLk6GJQsqaUBKTNV-6" target="WIyWlLk6GJQsqaUBKTNV-10">
          <mxGeometry x="-0.4787" y="-10" relative="1" as="geometry">
            <mxPoint as="offset" />
            <mxPoint x="80" y="260" as="sourcePoint" />
            <mxPoint x="640" y="240" as="targetPoint" />
            <Array as="points">
              <mxPoint x="460" y="355" />
            </Array>
          </mxGeometry>
        </mxCell>
        <mxCell id="8e0LqGuYPpYhiRtE7BXV-17" value="send_all_messages" style="rounded=0;html=1;jettySize=auto;orthogonalLoop=1;fontSize=11;endArrow=block;endFill=0;endSize=8;strokeWidth=1;shadow=0;labelBackgroundColor=none;edgeStyle=orthogonalEdgeStyle;entryX=0;entryY=0;entryDx=0;entryDy=0;exitX=0;exitY=1;exitDx=0;exitDy=0;horizontal=0;" edge="1" parent="WIyWlLk6GJQsqaUBKTNV-1" source="WIyWlLk6GJQsqaUBKTNV-6" target="WIyWlLk6GJQsqaUBKTNV-10">
          <mxGeometry x="0.177" y="-10" relative="1" as="geometry">
            <mxPoint as="offset" />
            <mxPoint x="500" y="133" as="sourcePoint" />
            <mxPoint x="475" y="340" as="targetPoint" />
            <Array as="points">
              <mxPoint x="460" y="120" />
              <mxPoint x="440" y="120" />
              <mxPoint x="440" y="310" />
              <mxPoint x="460" y="310" />
              <mxPoint x="460" y="355" />
            </Array>
          </mxGeometry>
        </mxCell>
        <mxCell id="8e0LqGuYPpYhiRtE7BXV-18" value="ia_message" style="rounded=0;html=1;jettySize=auto;orthogonalLoop=1;fontSize=11;endArrow=block;endFill=0;endSize=8;strokeWidth=1;shadow=0;labelBackgroundColor=none;edgeStyle=orthogonalEdgeStyle;entryX=0;entryY=0;entryDx=0;entryDy=0;exitX=0;exitY=1;exitDx=0;exitDy=0;horizontal=0;" edge="1" parent="WIyWlLk6GJQsqaUBKTNV-1" source="WIyWlLk6GJQsqaUBKTNV-6" target="WIyWlLk6GJQsqaUBKTNV-10">
          <mxGeometry x="-0.3673" y="-10" relative="1" as="geometry">
            <mxPoint as="offset" />
            <mxPoint x="500" y="133" as="sourcePoint" />
            <mxPoint x="475" y="340" as="targetPoint" />
            <Array as="points">
              <mxPoint x="460" y="120" />
              <mxPoint x="420" y="120" />
              <mxPoint x="420" y="310" />
              <mxPoint x="460" y="310" />
              <mxPoint x="460" y="355" />
            </Array>
          </mxGeometry>
        </mxCell>
        <mxCell id="8e0LqGuYPpYhiRtE7BXV-20" value="get data" style="endArrow=classic;startArrow=classic;html=1;rounded=0;entryX=1;entryY=0.5;entryDx=0;entryDy=0;exitX=1;exitY=0.5;exitDx=0;exitDy=0;" edge="1" parent="WIyWlLk6GJQsqaUBKTNV-1" source="gpm00dL7AFckw44W11zW-13" target="WIyWlLk6GJQsqaUBKTNV-7">
          <mxGeometry width="50" height="50" relative="1" as="geometry">
            <mxPoint x="650" y="400" as="sourcePoint" />
            <mxPoint x="700" y="350" as="targetPoint" />
            <Array as="points">
              <mxPoint x="710" y="490" />
              <mxPoint x="800" y="490" />
              <mxPoint x="800" y="270" />
              <mxPoint x="800" y="60" />
            </Array>
          </mxGeometry>
        </mxCell>
        <mxCell id="8e0LqGuYPpYhiRtE7BXV-21" value="check_message" style="rounded=0;html=1;jettySize=auto;orthogonalLoop=1;fontSize=11;endArrow=block;endFill=0;endSize=8;strokeWidth=1;shadow=0;labelBackgroundColor=none;edgeStyle=orthogonalEdgeStyle;exitX=0;exitY=1;exitDx=0;exitDy=0;horizontal=0;entryX=0;entryY=0;entryDx=0;entryDy=0;" edge="1" parent="WIyWlLk6GJQsqaUBKTNV-1" source="WIyWlLk6GJQsqaUBKTNV-6" target="WIyWlLk6GJQsqaUBKTNV-10">
          <mxGeometry x="0.1401" y="-10" relative="1" as="geometry">
            <mxPoint as="offset" />
            <mxPoint x="470" y="101" as="sourcePoint" />
            <mxPoint x="440" y="360" as="targetPoint" />
            <Array as="points">
              <mxPoint x="460" y="120" />
              <mxPoint x="400" y="120" />
              <mxPoint x="400" y="310" />
              <mxPoint x="460" y="310" />
              <mxPoint x="460" y="355" />
            </Array>
          </mxGeometry>
        </mxCell>
        <mxCell id="8e0LqGuYPpYhiRtE7BXV-22" value="get_user" style="rounded=0;html=1;jettySize=auto;orthogonalLoop=1;fontSize=11;endArrow=block;endFill=0;endSize=8;strokeWidth=1;shadow=0;labelBackgroundColor=none;edgeStyle=orthogonalEdgeStyle;horizontal=0;exitX=1;exitY=0;exitDx=0;exitDy=0;entryX=1;entryY=1;entryDx=0;entryDy=0;" edge="1" parent="WIyWlLk6GJQsqaUBKTNV-1" source="WIyWlLk6GJQsqaUBKTNV-10" target="WIyWlLk6GJQsqaUBKTNV-6">
          <mxGeometry x="0.1401" y="-10" relative="1" as="geometry">
            <mxPoint as="offset" />
            <mxPoint x="550" y="190" as="sourcePoint" />
            <mxPoint x="560" y="120" as="targetPoint" />
            <Array as="points">
              <mxPoint x="520" y="180" />
              <mxPoint x="520" y="180" />
            </Array>
          </mxGeometry>
        </mxCell>
        <mxCell id="8e0LqGuYPpYhiRtE7BXV-23" value="get_all_message" style="rounded=0;html=1;jettySize=auto;orthogonalLoop=1;fontSize=11;endArrow=block;endFill=0;endSize=8;strokeWidth=1;shadow=0;labelBackgroundColor=none;edgeStyle=orthogonalEdgeStyle;horizontal=0;exitX=1;exitY=0;exitDx=0;exitDy=0;entryX=1;entryY=1;entryDx=0;entryDy=0;" edge="1" parent="WIyWlLk6GJQsqaUBKTNV-1" source="WIyWlLk6GJQsqaUBKTNV-10" target="WIyWlLk6GJQsqaUBKTNV-6">
          <mxGeometry x="0.1401" y="-10" relative="1" as="geometry">
            <mxPoint as="offset" />
            <mxPoint x="530" y="365" as="sourcePoint" />
            <mxPoint x="530" y="101" as="targetPoint" />
            <Array as="points">
              <mxPoint x="520" y="310" />
              <mxPoint x="540" y="310" />
              <mxPoint x="540" y="140" />
              <mxPoint x="520" y="140" />
            </Array>
          </mxGeometry>
        </mxCell>
        <mxCell id="8e0LqGuYPpYhiRtE7BXV-24" value="register" style="rounded=0;html=1;jettySize=auto;orthogonalLoop=1;fontSize=11;endArrow=block;endFill=0;endSize=8;strokeWidth=1;shadow=0;labelBackgroundColor=none;edgeStyle=orthogonalEdgeStyle;horizontal=0;exitX=0.5;exitY=1;exitDx=0;exitDy=0;entryX=0.5;entryY=0;entryDx=0;entryDy=0;" edge="1" parent="WIyWlLk6GJQsqaUBKTNV-1" source="WIyWlLk6GJQsqaUBKTNV-6" target="WIyWlLk6GJQsqaUBKTNV-10">
          <mxGeometry x="0.1401" y="-10" relative="1" as="geometry">
            <mxPoint as="offset" />
            <mxPoint x="530" y="365" as="sourcePoint" />
            <mxPoint x="530" y="101" as="targetPoint" />
            <Array as="points">
              <mxPoint x="490" y="210" />
              <mxPoint x="490" y="210" />
            </Array>
          </mxGeometry>
        </mxCell>
        <mxCell id="8e0LqGuYPpYhiRtE7BXV-25" value="send_message" style="edgeStyle=orthogonalEdgeStyle;rounded=0;html=1;jettySize=auto;orthogonalLoop=1;fontSize=11;endArrow=block;endFill=0;endSize=8;strokeWidth=1;shadow=0;labelBackgroundColor=none;exitX=0.5;exitY=0;exitDx=0;exitDy=0;horizontal=0;entryX=1;entryY=0.5;entryDx=0;entryDy=0;" edge="1" parent="WIyWlLk6GJQsqaUBKTNV-1" target="gpm00dL7AFckw44W11zW-8">
          <mxGeometry x="0.1667" y="10" relative="1" as="geometry">
            <mxPoint y="1" as="offset" />
            <mxPoint x="500" y="8" as="sourcePoint" />
            <mxPoint x="525" y="-90" as="targetPoint" />
            <Array as="points">
              <mxPoint x="540" y="8" />
            </Array>
          </mxGeometry>
        </mxCell>
      </root>
    </mxGraphModel>
  </diagram>
</mxfile>
